# xmcd
#
# Track frame offsets: 
#        183
#        19855
#        43283
#        61395
#        85125
#        101815
#        128595
#        152878
#        172643
#        190093
#        211935
#        231533
#
# Disc length: 3481 seconds
#
# Revision: 0
# Processed by: cddbd v1.5.2PL0 Copyright (c) Steve Scherf et al.
# Submitted via: ExactAudioCopy v0.99pb3
#
DISCID=9d0d970c
DTITLE=Tony Joe White - Closer To The Truth
DYEAR=1991
DGENRE=Blues
TTITLE0=Tunica Motel
TTITLE1=Ain't Going Down This Time
TTITLE2=Steamy Windows
TTITLE3=(You're Gonna Look) Good In Blues
TTITLE4=Love M.D.
TTITLE5=The Other Side
TTITLE6=Bi-Yo Rhythm
TTITLE7=Cool Town Woman
TTITLE8=Bare Necessities
TTITLE9=Undercover Agent For The Blues
TTITLE10=Main Squeeze
TTITLE11=Closer To The Truth
EXTD=
EXTT0=
EXTT1=
EXTT2=
EXTT3=
EXTT4=
EXTT5=
EXTT6=
EXTT7=
EXTT8=
EXTT9=
EXTT10=
EXTT11=
PLAYORDER=
